<mxfile host="app.diagrams.net" modified="2022-11-23T20:25:45.691Z" agent="5.0 (Windows NT 10.0; Win64; x64) AppleWebKit/537.36 (KHTML, like Gecko) Chrome/107.0.0.0 Safari/537.36" version="20.6.0" etag="iWsazY8hwHvGgPbzMywi" type="github">
  <diagram id="YLxcvs7g5hzCUymmAWNF" name="Page-1">
    <mxGraphModel dx="868" dy="450" grid="1" gridSize="10" guides="1" tooltips="1" connect="1" arrows="1" fold="1" page="1" pageScale="1" pageWidth="850" pageHeight="1100" math="0" shadow="0">
      <root>
        <mxCell id="0" />
        <mxCell id="1" parent="0" />
        <mxCell id="dglBkwXJ5XKUGASN1-KF-1" value="Dice_Dice" style="swimlane;fontStyle=1;align=center;verticalAlign=top;childLayout=stackLayout;horizontal=1;startSize=26;horizontalStack=0;resizeParent=1;resizeParentMax=0;resizeLast=0;collapsible=1;marginBottom=0;fontFamily=Lucida Console;fillColor=#CCFFFF;" vertex="1" parent="1">
          <mxGeometry x="70" y="50" width="250" height="160" as="geometry" />
        </mxCell>
        <mxCell id="dglBkwXJ5XKUGASN1-KF-2" value="- value: int&#xa;" style="text;strokeColor=none;fillColor=#FFCCFF;align=left;verticalAlign=top;spacingLeft=4;spacingRight=4;overflow=hidden;rotatable=0;points=[[0,0.5],[1,0.5]];portConstraint=eastwest;fontFamily=Lucida Console;" vertex="1" parent="dglBkwXJ5XKUGASN1-KF-1">
          <mxGeometry y="26" width="250" height="44" as="geometry" />
        </mxCell>
        <mxCell id="dglBkwXJ5XKUGASN1-KF-3" value="" style="line;strokeWidth=1;fillColor=none;align=left;verticalAlign=middle;spacingTop=-1;spacingLeft=3;spacingRight=3;rotatable=0;labelPosition=right;points=[];portConstraint=eastwest;strokeColor=inherit;" vertex="1" parent="dglBkwXJ5XKUGASN1-KF-1">
          <mxGeometry y="70" width="250" height="8" as="geometry" />
        </mxCell>
        <mxCell id="dglBkwXJ5XKUGASN1-KF-4" value="+ Dice_Dice(int value)&#xa;+ setValue(int value): void&#xa;+ getValue(): int&#xa;+ throwDice() : int" style="text;strokeColor=none;fillColor=#CCFF99;align=left;verticalAlign=top;spacingLeft=4;spacingRight=4;overflow=hidden;rotatable=0;points=[[0,0.5],[1,0.5]];portConstraint=eastwest;fontFamily=Lucida Console;" vertex="1" parent="dglBkwXJ5XKUGASN1-KF-1">
          <mxGeometry y="78" width="250" height="82" as="geometry" />
        </mxCell>
        <mxCell id="dglBkwXJ5XKUGASN1-KF-9" value="Dice_Game" style="swimlane;fontStyle=1;align=center;verticalAlign=top;childLayout=stackLayout;horizontal=1;startSize=26;horizontalStack=0;resizeParent=1;resizeParentMax=0;resizeLast=0;collapsible=1;marginBottom=0;fontFamily=Lucida Console;fillColor=#CCFFFF;" vertex="1" parent="1">
          <mxGeometry x="100" y="300" width="550" height="260" as="geometry" />
        </mxCell>
        <mxCell id="dglBkwXJ5XKUGASN1-KF-10" value="- firstPlayer: String&#xa;- secondPlayer: String&#xa;- firstPlayerTotalPoints: int&#xa;- secondPlayerTotalPoints: int&#xa;- totalOfPoints: int" style="text;strokeColor=none;fillColor=#FFCCFF;align=left;verticalAlign=top;spacingLeft=4;spacingRight=4;overflow=hidden;rotatable=0;points=[[0,0.5],[1,0.5]];portConstraint=eastwest;fontFamily=Lucida Console;" vertex="1" parent="dglBkwXJ5XKUGASN1-KF-9">
          <mxGeometry y="26" width="550" height="114" as="geometry" />
        </mxCell>
        <mxCell id="dglBkwXJ5XKUGASN1-KF-11" value="" style="line;strokeWidth=1;fillColor=none;align=left;verticalAlign=middle;spacingTop=-1;spacingLeft=3;spacingRight=3;rotatable=0;labelPosition=right;points=[];portConstraint=eastwest;strokeColor=inherit;fontFamily=Lucida Console;" vertex="1" parent="dglBkwXJ5XKUGASN1-KF-9">
          <mxGeometry y="140" width="550" height="8" as="geometry" />
        </mxCell>
        <mxCell id="dglBkwXJ5XKUGASN1-KF-12" value="+ requestPlayerNames(): void&#xa;+ requestPlayerThrows(String player): void&#xa;+ comparePointsOfPlayers(String firstPlayer, String secondPlayer): void&#xa;+ runGame(): void" style="text;strokeColor=none;fillColor=#CCFF99;align=left;verticalAlign=top;spacingLeft=4;spacingRight=4;overflow=hidden;rotatable=0;points=[[0,0.5],[1,0.5]];portConstraint=eastwest;fontFamily=Lucida Console;" vertex="1" parent="dglBkwXJ5XKUGASN1-KF-9">
          <mxGeometry y="148" width="550" height="112" as="geometry" />
        </mxCell>
        <mxCell id="dglBkwXJ5XKUGASN1-KF-13" value="Dice_Main" style="swimlane;fontStyle=1;align=center;verticalAlign=top;childLayout=stackLayout;horizontal=1;startSize=26;horizontalStack=0;resizeParent=1;resizeParentMax=0;resizeLast=0;collapsible=1;marginBottom=0;fontFamily=Lucida Console;fillColor=#CCFFFF;" vertex="1" parent="1">
          <mxGeometry x="250" y="660" width="210" height="94" as="geometry" />
        </mxCell>
        <mxCell id="dglBkwXJ5XKUGASN1-KF-15" value="" style="line;strokeWidth=1;fillColor=none;align=left;verticalAlign=middle;spacingTop=-1;spacingLeft=3;spacingRight=3;rotatable=0;labelPosition=right;points=[];portConstraint=eastwest;strokeColor=inherit;fontFamily=Lucida Console;" vertex="1" parent="dglBkwXJ5XKUGASN1-KF-13">
          <mxGeometry y="26" width="210" height="8" as="geometry" />
        </mxCell>
        <mxCell id="dglBkwXJ5XKUGASN1-KF-16" value="+ main(String[] args): void" style="text;strokeColor=none;fillColor=#CCFF99;align=left;verticalAlign=top;spacingLeft=4;spacingRight=4;overflow=hidden;rotatable=0;points=[[0,0.5],[1,0.5]];portConstraint=eastwest;fontFamily=Lucida Console;" vertex="1" parent="dglBkwXJ5XKUGASN1-KF-13">
          <mxGeometry y="34" width="210" height="60" as="geometry" />
        </mxCell>
        <mxCell id="dglBkwXJ5XKUGASN1-KF-17" value="Use" style="endArrow=open;endSize=12;dashed=1;html=1;rounded=0;fontFamily=Lucida Console;exitX=0.727;exitY=-0.012;exitDx=0;exitDy=0;exitPerimeter=0;entryX=0.206;entryY=1.022;entryDx=0;entryDy=0;entryPerimeter=0;" edge="1" parent="1" source="dglBkwXJ5XKUGASN1-KF-9" target="dglBkwXJ5XKUGASN1-KF-23">
          <mxGeometry width="160" relative="1" as="geometry">
            <mxPoint x="340" y="180" as="sourcePoint" />
            <mxPoint x="500" y="220" as="targetPoint" />
          </mxGeometry>
        </mxCell>
        <mxCell id="dglBkwXJ5XKUGASN1-KF-18" value="Use" style="endArrow=open;endSize=12;dashed=1;html=1;rounded=0;fontFamily=Lucida Console;entryX=0.392;entryY=1.024;entryDx=0;entryDy=0;entryPerimeter=0;exitX=0.124;exitY=0.004;exitDx=0;exitDy=0;exitPerimeter=0;" edge="1" parent="1" source="dglBkwXJ5XKUGASN1-KF-9" target="dglBkwXJ5XKUGASN1-KF-4">
          <mxGeometry width="160" relative="1" as="geometry">
            <mxPoint x="115" y="270" as="sourcePoint" />
            <mxPoint x="275" y="270" as="targetPoint" />
            <Array as="points">
              <mxPoint x="170" y="260" />
            </Array>
          </mxGeometry>
        </mxCell>
        <mxCell id="dglBkwXJ5XKUGASN1-KF-19" value="Use" style="endArrow=open;endSize=12;dashed=1;html=1;rounded=0;fontFamily=Lucida Console;exitX=0.467;exitY=-0.032;exitDx=0;exitDy=0;exitPerimeter=0;entryX=0.453;entryY=1.018;entryDx=0;entryDy=0;entryPerimeter=0;" edge="1" parent="1" source="dglBkwXJ5XKUGASN1-KF-13" target="dglBkwXJ5XKUGASN1-KF-12">
          <mxGeometry width="160" relative="1" as="geometry">
            <mxPoint x="340" y="580" as="sourcePoint" />
            <mxPoint x="500" y="580" as="targetPoint" />
          </mxGeometry>
        </mxCell>
        <mxCell id="dglBkwXJ5XKUGASN1-KF-20" value="Dice_Player" style="swimlane;fontStyle=1;align=center;verticalAlign=top;childLayout=stackLayout;horizontal=1;startSize=26;horizontalStack=0;resizeParent=1;resizeParentMax=0;resizeLast=0;collapsible=1;marginBottom=0;fontFamily=Lucida Console;fillColor=#CCFFFF;" vertex="1" parent="1">
          <mxGeometry x="430" y="20" width="330" height="190" as="geometry" />
        </mxCell>
        <mxCell id="dglBkwXJ5XKUGASN1-KF-21" value="- name: String&#xa;- totalPoints: int&#xa;" style="text;strokeColor=none;fillColor=#FFCCFF;align=left;verticalAlign=top;spacingLeft=4;spacingRight=4;overflow=hidden;rotatable=0;points=[[0,0.5],[1,0.5]];portConstraint=eastwest;fontFamily=Lucida Console;" vertex="1" parent="dglBkwXJ5XKUGASN1-KF-20">
          <mxGeometry y="26" width="330" height="64" as="geometry" />
        </mxCell>
        <mxCell id="dglBkwXJ5XKUGASN1-KF-22" value="" style="line;strokeWidth=1;fillColor=none;align=left;verticalAlign=middle;spacingTop=-1;spacingLeft=3;spacingRight=3;rotatable=0;labelPosition=right;points=[];portConstraint=eastwest;strokeColor=inherit;fontFamily=Lucida Console;" vertex="1" parent="dglBkwXJ5XKUGASN1-KF-20">
          <mxGeometry y="90" width="330" height="8" as="geometry" />
        </mxCell>
        <mxCell id="dglBkwXJ5XKUGASN1-KF-23" value="+ Dice_Player(String name)&#xa;+ setName(String name): void&#xa;+ getName(): String&#xa;+ setTotalPoints( int points): void&#xa;+ getTotalPoints(): int" style="text;strokeColor=none;fillColor=#CCFF99;align=left;verticalAlign=top;spacingLeft=4;spacingRight=4;overflow=hidden;rotatable=0;points=[[0,0.5],[1,0.5]];portConstraint=eastwest;fontFamily=Lucida Console;" vertex="1" parent="dglBkwXJ5XKUGASN1-KF-20">
          <mxGeometry y="98" width="330" height="92" as="geometry" />
        </mxCell>
      </root>
    </mxGraphModel>
  </diagram>
</mxfile>
